<?xml version="1.0" encoding="utf-8"?>
<!-- Generator: Adobe Illustrator 24.3.0, SVG Export Plug-In . SVG Version: 6.00 Build 0)  -->
<svg version="1.1" id="Layer_1" xmlns="http://www.w3.org/2000/svg" xmlns:xlink="http://www.w3.org/1999/xlink" x="0px" y="0px"
	 viewBox="0 0 24 24" style="enable-background:new 0 0 24 24;" xml:space="preserve">
<style type="text/css">
	.st0{fill:none;stroke:#000000;stroke-width:1.5;stroke-linecap:round;stroke-linejoin:round;}
	.st1{fill:none;stroke:#000000;stroke-width:1.5;stroke-miterlimit:10;}
	.st2{fill:none;stroke:#000000;stroke-width:1.5;stroke-linecap:round;stroke-miterlimit:10;}
</style>
<g>
	<g>
		<path d="M5.5,19.3c-0.4,0-0.8-0.3-0.8-0.8v-4.3c0-0.4,0.3-0.8,0.8-0.8s0.8,0.3,0.8,0.8v4.3C6.3,19,5.9,19.3,5.5,19.3z"/>
	</g>
	<g>
		<path d="M12.2,19.3c-0.4,0-0.8-0.3-0.8-0.8v-9c0-0.4,0.3-0.8,0.8-0.8S13,9.2,13,9.6v9C13,19,12.6,19.3,12.2,19.3z"/>
	</g>
	<g>
		<path d="M19.7,19.3c-0.4,0-0.8-0.3-0.8-0.8V4.4c0-0.4,0.3-0.7,0.8-0.7s0.8,0.3,0.8,0.7v14.2C20.4,19,20.1,19.3,19.7,19.3z"/>
	</g>
</g>
</svg>
