<?xml version="1.0" encoding="utf-8"?>
<!-- Generator: Adobe Illustrator 24.3.0, SVG Export Plug-In . SVG Version: 6.00 Build 0)  -->
<svg version="1.1" id="Layer_1" xmlns="http://www.w3.org/2000/svg" xmlns:xlink="http://www.w3.org/1999/xlink" x="0px" y="0px"
	 viewBox="0 0 24 24" style="enable-background:new 0 0 24 24;" xml:space="preserve">
<g>
	<g>
		<g>
			<path d="M6.8,14.2v4.3c0,0.8-0.7,1.3-1.3,1.3s-1.3-0.5-1.3-1.3v-4.3c0-0.6,0.5-1.3,1.3-1.3C6.3,12.9,6.8,13.4,6.8,14.2z"/>
		</g>
	</g>
	<g>
		<g>
			<path d="M13.5,9.6v9c0,0.7-0.6,1.2-1.3,1.2c-0.6,0-1.3-0.5-1.3-1.3v-9c0-0.6,0.5-1.3,1.3-1.3C13,8.2,13.5,8.9,13.5,9.6z"/>
		</g>
	</g>
	<g>
		<g>
			<path d="M21,4.4l0,14.3c-0.2,0.7-0.7,1.1-1.3,1.1c-0.6,0-1.3-0.5-1.3-1.3V4.4c0-0.7,0.5-1.2,1.3-1.2S21,3.7,21,4.4z"/>
		</g>
	</g>
</g>
</svg>
