<svg xmlns="http://www.w3.org/2000/svg" xmlns:xlink="http://www.w3.org/1999/xlink" version="1.1" id="Layer_1" x="0px" y="0px" style="enable-background:new 0 0 24 24;" xml:space="preserve" viewBox="2.8 2.2 18.8 18.7">
<style type="text/css">
	.st0{fill:none;stroke:#000000;stroke-width:1.5;stroke-linecap:round;stroke-linejoin:round;}
	.st1{fill:none;stroke:#000000;stroke-width:1.5;stroke-miterlimit:10;}
	.st2{fill:none;stroke:#000000;stroke-width:1.5;stroke-linecap:round;stroke-miterlimit:10;}
</style>
<g>
	<g>
		<path d="M12.3,9.9c-0.2,0-0.4-0.1-0.5-0.2L8.6,6.5C8.4,6.4,8.3,6.2,8.3,6s0.1-0.4,0.2-0.5l3.2-3.1c0.1-0.1,0.4-0.2,0.5-0.2    c0.2,0,0.4,0.1,0.5,0.2L16,5.7c0.1,0.1,0.2,0.3,0.2,0.5c0,0.2-0.1,0.4-0.2,0.5l-3.1,2.9C12.7,9.8,12.5,9.9,12.3,9.9z M10.3,6.1    l1.8,1.8c0.1,0.1,0.2,0.1,0.3,0l1.7-1.6c0.1-0.1,0.1-0.2,0-0.3l-1.8-1.9c-0.1-0.1-0.2-0.1-0.3,0l-1.8,1.7    C10.2,5.9,10.2,6,10.3,6.1z"/>
	</g>
	<g>
		<path d="M6.8,15.4c-0.2,0-0.4-0.1-0.5-0.2L3,12.1c-0.1-0.1-0.2-0.3-0.2-0.5S2.9,11.1,3,11l3.2-3.1c0.1-0.1,0.3-0.2,0.5-0.2    c0.2,0,0.4,0.1,0.5,0.2l3.2,3.3c0.1,0.1,0.2,0.3,0.2,0.5s-0.1,0.4-0.2,0.5l-3.1,3C7.2,15.3,7,15.4,6.8,15.4z M4.8,11.7l1.7,1.6    c0.1,0.1,0.3,0.1,0.4,0l1.6-1.5c0.1-0.1,0.1-0.3,0-0.4L6.9,9.7c-0.1-0.1-0.3-0.1-0.4,0l-1.6,1.6C4.7,11.4,4.7,11.6,4.8,11.7z"/>
	</g>
	<g>
		<path d="M17.8,15.5c-0.2,0-0.4-0.1-0.5-0.2L14,12.1c-0.1-0.1-0.2-0.3-0.2-0.5s0.1-0.4,0.2-0.5L17.3,8c0.1-0.1,0.3-0.2,0.5-0.2    c0.2,0,0.4,0.1,0.5,0.2l3.1,3.3c0.1,0.1,0.2,0.3,0.2,0.5c0,0.2-0.1,0.4-0.2,0.5l-3.1,2.9C18.2,15.4,18,15.5,17.8,15.5z M15.9,11.8    l1.7,1.7c0.1,0.1,0.3,0.1,0.4,0l1.6-1.5c0.1-0.1,0.1-0.3,0-0.4L18,9.8c-0.1-0.1-0.3-0.1-0.4,0l-1.7,1.6    C15.7,11.5,15.7,11.7,15.9,11.8z"/>
	</g>
	<g>
		<path d="M12.4,20.9c-0.2,0-0.4-0.1-0.5-0.2l-3.3-3.1c-0.1-0.1-0.2-0.3-0.2-0.5c0-0.2,0.1-0.4,0.2-0.5l3.1-3.2    c0.1-0.1,0.3-0.2,0.5-0.2c0,0,0,0,0,0c0.2,0,0.4,0.1,0.5,0.2l3.2,3.2c0.1,0.1,0.2,0.3,0.2,0.5c0,0.2-0.1,0.4-0.2,0.5l-3.1,3    C12.8,20.8,12.6,20.9,12.4,20.9z M10.4,17.3l1.7,1.6c0.1,0.1,0.4,0.1,0.5,0l1.5-1.5c0.1-0.1,0.1-0.4,0-0.5l-1.6-1.6    c-0.1-0.1-0.4-0.1-0.5,0l-1.5,1.5C10.3,16.9,10.3,17.2,10.4,17.3z"/>
	</g>
</g>
</svg>