<svg xmlns="http://www.w3.org/2000/svg" xmlns:xlink="http://www.w3.org/1999/xlink" version="1.1" id="Layer_1" x="0px" y="0px" style="enable-background:new 0 0 24 24;" xml:space="preserve" viewBox="3.1 2.75 16.1 17.55">
<style type="text/css">
	.st0{fill:none;stroke:#000000;stroke-width:1.5;stroke-linecap:round;stroke-linejoin:round;}
	.st1{fill:none;stroke:#000000;stroke-width:1.5;stroke-miterlimit:10;}
	.st2{fill:none;stroke:#000000;stroke-width:1.5;stroke-linecap:round;stroke-miterlimit:10;}
</style>
<g>
	<path d="M18.6,6.8l-6.8-3.9c-0.4-0.2-0.9-0.2-1.3,0L3.9,6.7C3.4,7,3.1,7.5,3.1,8.1v7.3c0,0.5,0.3,0.9,0.7,1.1l6.9,3.7   c0.2,0.1,0.4,0.1,0.6,0.1c0.2,0,0.4-0.1,0.6-0.2l6.6-3.8c0.4-0.2,0.7-0.7,0.7-1.1V7.9C19.2,7.4,19,7,18.6,6.8z M4.6,15.1V9.3   C4.6,9.1,4.8,9,5,9.1l5.3,2.8c0.1,0,0.2,0.1,0.2,0.3l0.1,5.8c0,0.2-0.2,0.4-0.4,0.3l-5.4-2.8C4.6,15.3,4.6,15.2,4.6,15.1z M11,10.6   L5.8,7.8c-0.2-0.1-0.2-0.4,0-0.5l5.2-3c0.1-0.1,0.2-0.1,0.3,0l5.2,3c0.2,0.1,0.2,0.4,0,0.5l-5.2,2.8C11.2,10.6,11.1,10.6,11,10.6z    M17.6,15.2l-5.1,2.9c-0.2,0.1-0.4,0-0.4-0.2l-0.1-5.8c0-0.1,0.1-0.2,0.2-0.3l5.2-2.8c0.2-0.1,0.4,0,0.4,0.3V15   C17.7,15.1,17.7,15.2,17.6,15.2z"/>
</g>
</svg>