<svg xmlns="http://www.w3.org/2000/svg" xmlns:xlink="http://www.w3.org/1999/xlink" version="1.1" id="Layer_1" x="0px" y="0px" style="enable-background:new 0 0 24 24;" xml:space="preserve" viewBox="6.2 6.8 12.5 11.3">
<style type="text/css">
	.st0{fill:none;stroke:#000000;stroke-width:1.5;stroke-linecap:round;stroke-linejoin:round;}
	.st1{fill:none;stroke:#000000;stroke-width:1.5;stroke-miterlimit:10;}
	.st2{fill:none;stroke:#000000;stroke-width:1.5;stroke-linecap:round;stroke-miterlimit:10;}
</style>
<g>
	<path d="M18.7,14.7c0-0.2-0.1-0.4-0.2-0.5c-0.3-0.3-0.8-0.3-1.1,0L16,15.7L15.4,15l0.7-0.7c0.1-0.1,0.2-0.3,0.2-0.5   c0-0.2-0.1-0.4-0.2-0.5c-0.3-0.3-0.8-0.3-1.1,0L14.3,14l-1.9-1.9c0.4-0.5,0.6-1.2,0.6-1.9c0-1.9-1.5-3.4-3.4-3.4s-3.4,1.5-3.4,3.4   s1.5,3.4,3.4,3.4c0.6,0,1.2-0.2,1.7-0.5l5,4.8c0.2,0.1,0.3,0.2,0.5,0.2c0.2,0,0.4-0.1,0.5-0.2c0.3-0.3,0.3-0.8,0-1.1l-0.2-0.2   l1.4-1.5C18.6,15.1,18.7,14.9,18.7,14.7z M7.6,10.2c0-1,0.8-1.9,1.9-1.9c1.1,0,1.9,0.9,1.9,1.9s-0.8,1.9-1.9,1.9   C8.5,12.1,7.6,11.3,7.6,10.2z"/>
</g>
</svg>