<svg xmlns="http://www.w3.org/2000/svg" xmlns:xlink="http://www.w3.org/1999/xlink" version="1.1" id="Layer_1" x="0px" y="0px" style="enable-background:new 0 0 24 24;" xml:space="preserve" viewBox="3.4 3.65 16.3 15.75">
<style type="text/css">
	.st0{fill:none;stroke:#000000;stroke-width:1.5;stroke-linecap:round;stroke-linejoin:round;}
	.st1{fill:none;stroke:#000000;stroke-width:1.5;stroke-miterlimit:10;}
	.st2{fill:none;stroke:#000000;stroke-width:1.5;stroke-linecap:round;stroke-miterlimit:10;}
</style>
<g>
	<g>
		<path d="M11.6,19.4c-0.4,0-0.8-0.1-1.1-0.3l-6.6-3.4c-0.4-0.2-0.5-0.6-0.3-1c0.2-0.4,0.6-0.5,1-0.3l6.6,3.4c0.3,0.1,0.6,0.1,0.9,0    l6.5-3.4c0.4-0.2,0.8-0.1,1,0.3c0.2,0.4,0.1,0.8-0.3,1l-6.5,3.4C12.4,19.3,12,19.4,11.6,19.4z"/>
	</g>
	<g>
		<path d="M11.6,15.7c-0.4,0-0.8-0.1-1.1-0.3L3.8,12c-0.4-0.2-0.5-0.6-0.3-1c0.2-0.4,0.6-0.5,1-0.3l6.6,3.4c0.3,0.1,0.6,0.1,0.9,0    l6.5-3.4c0.4-0.2,0.8-0.1,1,0.3c0.2,0.4,0.1,0.8-0.3,1l-6.5,3.4C12.4,15.6,12,15.7,11.6,15.7z"/>
	</g>
	<g>
		<path d="M11.7,12.2c-0.2,0-0.3,0-0.5-0.1L4.5,8.8C4.1,8.6,3.9,8.3,3.9,8c0-0.4,0.2-0.7,0.5-0.8l0,0L11,3.8c0.3-0.2,0.8-0.2,1.1,0    l6.5,3.3c0.3,0.2,0.5,0.5,0.5,0.8c0,0.4-0.2,0.7-0.5,0.9l-6.4,3.3C12,12.1,11.8,12.2,11.7,12.2z M6.7,8.2l4.8,2.3    c0.1,0,0.2,0,0.3,0l4.5-2.3c0.2-0.1,0.2-0.5,0-0.6l-4.7-2.4c-0.1,0-0.2,0-0.3,0L6.7,7.6C6.5,7.8,6.5,8.1,6.7,8.2z M5.1,8.5    C5.1,8.5,5.1,8.5,5.1,8.5L5.1,8.5z M17.9,8.4C17.9,8.4,17.9,8.4,17.9,8.4L17.9,8.4z M11.4,5.1C11.4,5.1,11.4,5.1,11.4,5.1    L11.4,5.1z"/>
	</g>
</g>
</svg>